<?xml version="1.0" standalone="no"?>
<!DOCTYPE svg PUBLIC "-//W3C//DTD SVG 20010904//EN"
 "http://www.w3.org/TR/2001/REC-SVG-20010904/DTD/svg10.dtd">
<svg version="1.0" xmlns="http://www.w3.org/2000/svg"
 width="1920.000000pt" height="1080.000000pt" viewBox="0 0 1920.000000 1080.000000"
 preserveAspectRatio="xMidYMid meet">

<g transform="translate(0.000000,1080.000000) scale(0.100000,-0.100000)"
fill="#000000" stroke="none">
<path d="M940 10592 l-246 -207 234 -195 c128 -107 237 -200 243 -206 6 -8
-64 -73 -234 -215 l-243 -204 234 -195 c128 -107 237 -200 243 -206 6 -8 -64
-73 -234 -215 l-243 -204 234 -195 c128 -107 237 -200 243 -206 6 -8 -64 -73
-234 -215 l-243 -204 234 -195 c128 -107 237 -200 243 -206 6 -8 -64 -73 -234
-215 l-243 -204 234 -195 c128 -107 237 -200 243 -206 6 -8 -64 -73 -234 -215
l-243 -204 243 -204 c171 -142 240 -207 234 -215 -6 -6 -115 -99 -243 -206
l-234 -195 243 -204 c170 -142 240 -207 234 -215 -6 -6 -115 -99 -243 -206
l-234 -195 243 -204 c170 -142 240 -207 234 -215 -6 -6 -115 -99 -243 -206
l-234 -195 243 -204 c170 -142 240 -207 234 -215 -6 -6 -115 -99 -243 -206
l-234 -195 243 -204 c170 -142 240 -207 234 -215 -6 -6 -115 -99 -243 -206
l-234 -195 243 -204 c170 -142 240 -207 234 -215 -6 -6 -115 -99 -243 -206
l-234 -195 243 -204 c170 -142 240 -207 234 -215 -6 -6 -115 -99 -243 -206
l-234 -195 244 -204 244 -205 -29 -26 c-16 -14 -51 -44 -78 -67 l-50 -42 8661
-1 8662 0 81 67 82 68 -23 18 c-13 11 -104 88 -203 172 -99 84 -198 168 -220
186 l-41 33 160 136 c87 74 195 165 239 201 43 37 79 70 79 74 0 4 -36 37 -79
74 -44 36 -152 127 -239 201 l-160 136 41 33 c22 18 121 102 220 186 99 84
190 161 203 172 l23 18 -103 86 c-57 48 -166 140 -243 206 l-141 118 41 34
c22 18 121 102 220 186 99 84 190 161 203 172 l23 18 -103 86 c-57 48 -166
140 -243 206 l-141 118 41 34 c22 18 121 102 220 186 99 84 190 161 203 172
l23 18 -103 86 c-57 48 -166 140 -243 206 l-141 118 41 34 c22 18 121 102 220
186 99 84 190 161 203 172 l23 18 -103 86 c-57 48 -166 140 -243 206 l-141
118 41 34 c22 18 121 102 220 186 99 84 190 161 203 172 l23 18 -103 86 c-57
48 -166 140 -243 206 l-141 118 41 34 c22 18 121 102 220 186 99 84 190 161
203 172 l23 18 -103 86 c-57 48 -166 140 -243 206 l-141 118 41 34 c22 18 121
102 220 186 99 84 190 161 203 172 l23 18 -103 86 c-57 48 -166 140 -243 206
l-141 118 41 34 c22 18 121 102 220 186 99 84 190 161 203 172 l23 18 -103 86
c-57 48 -166 140 -243 206 l-141 118 41 34 c22 18 121 102 220 186 99 84 190
161 203 172 l23 18 -103 86 c-57 48 -166 140 -243 206 l-141 118 41 34 c22 18
121 102 220 186 99 84 190 161 203 172 l23 18 -103 86 c-57 48 -166 140 -243
206 l-141 118 41 34 c22 18 121 102 220 186 99 84 190 161 203 172 l23 18
-103 86 c-57 48 -166 140 -243 206 l-141 118 41 34 c22 18 121 102 220 186 99
84 191 162 205 174 l25 20 -8665 0 -8665 0 -245 -207z"/>
</g>
</svg>
