<svg width="205" height="55" viewBox="0 0 205 55" fill="none" xmlns="http://www.w3.org/2000/svg">
<path d="M15.957 37.4922L0.628906 0.296875L15.5352 12.6016L20.6328 25.3984L15.957 37.4922ZM15.957 47.0898L34.168 0.121094L41.7266 7.32812L23.6562 53.9102L15.957 47.0898ZM45.2422 46H65.6328V42.2734L74.1758 51.2734V54.8594H54.1719L45.2422 46ZM49.0742 42.4844V23.7461H64.6836V20.0195L73.2617 29.2305V32.6055H59.1992V42.4844H49.0742ZM49.0742 20.2305V3.74219H65.1055V0.191406L73.8242 9.29688V12.4609H59.1992V20.2305H49.0742ZM104.305 26.2773C111.547 31.6445 115.168 36.9414 115.168 42.168C115.168 45.6836 113.914 48.6602 111.406 51.0977C108.828 53.6055 105.641 54.8594 101.844 54.8594C95.6562 54.8594 89.1523 50.875 82.332 42.9062C85.7305 45.7422 89.3633 47.1602 93.2305 47.1602C97.1211 47.1602 100.402 45.9414 103.074 43.5039C105.77 41.043 107.117 38.0312 107.117 34.4688C107.117 31.3047 106.18 28.5742 104.305 26.2773ZM93.8633 43.6797C93.5352 43.75 93.1016 43.7852 92.5625 43.7852C89.7734 43.7852 87.207 42.8359 84.8633 40.9375C82.4258 38.9922 80.9609 36.5781 80.4688 33.6953L93.8633 43.6797ZM104.164 33.5547C103.391 32.6641 101.949 31.9961 99.8398 31.5508C96.5117 30.8242 94.4258 30.3086 93.582 30.0039C90.2305 28.8086 86.9375 25.457 83.7031 19.9492C85.2031 21.4258 87.0078 22.4805 89.1172 23.1133C89.5391 23.2539 91.4141 23.6406 94.7422 24.2734C97.5312 24.7891 99.6172 25.7031 101 27.0156C102.477 28.4219 103.531 30.6016 104.164 33.5547ZM91.4727 20.1602C86.0117 18.9883 83.2812 16.293 83.2812 12.0742C83.2812 9.51953 84.3594 7.30469 86.5156 5.42969C88.6953 3.53125 91.3086 2.58203 94.3555 2.58203C97.6367 2.58203 100.543 3.77734 103.074 6.16797L105.465 3.88281L113.164 12.0039L110.633 14.6055C106.93 11.4883 103.766 9.92969 101.141 9.92969C98.3516 9.92969 96.0547 10.8672 94.25 12.7422C92.4453 14.5938 91.5195 17.0664 91.4727 20.1602ZM124.801 42.4844V0.367188L135.453 10.1406V42.4844H124.801ZM121.18 46H142.133V42.4844L151.484 51.625V54.8594H129.758L121.18 46ZM164.211 42.0977C160.438 40.1055 157.531 37.4805 155.492 34.2227C153.477 30.9648 152.469 27.3789 152.469 23.4648C152.469 17.6758 154.508 12.7305 158.586 8.62891C162.617 4.59766 167.363 2.58203 172.824 2.58203C179.738 2.58203 185.457 5.74609 189.98 12.0742C187.543 10.9258 184.73 10.3516 181.543 10.3516C175.848 10.3516 171.043 12.3438 167.129 16.3281C163.215 20.3125 161.258 25.1406 161.258 30.8125C161.258 35.5938 162.242 39.3555 164.211 42.0977ZM189.629 6.97656C194.949 10.9141 198.781 14.7227 201.125 18.4023C203.586 22.2695 204.816 26.6172 204.816 31.4453C204.816 38.0078 202.578 43.5508 198.102 48.0742C193.625 52.5977 188.129 54.8594 181.613 54.8594C173.176 54.8594 165.617 50.6055 158.938 42.0977C162.828 45.4258 167.48 47.0898 172.895 47.0898C179.762 47.0898 185.422 44.7695 189.875 40.1289C194.258 35.5586 196.449 29.793 196.449 22.832C196.449 17.3242 194.176 12.0391 189.629 6.97656Z" fill="white"/>
</svg>
